<svg xmlns="http://www.w3.org/2000/svg" width="100" height="100" viewBox="0 0 100 100">
  <defs>
    <linearGradient id="l" x1="0" y1="0" x2="0" y2="1">
      <stop offset="0" stop-color="#bae6fd"/><stop offset="0.55" stop-color="#38bdf8"/><stop offset="1" stop-color="#0ea5e9"/>
    </linearGradient>
    <linearGradient id="d" x1="0" y1="0" x2="0" y2="1">
      <stop offset="0" stop-color="#2563eb"/><stop offset="0.6" stop-color="#1d4ed8"/><stop offset="1" stop-color="#0b1e54"/>
    </linearGradient>
    <radialGradient id="bg" cx="0.5" cy="0.42" r="0.65">
      <stop offset="0" stop-color="#16213e"/><stop offset="1" stop-color="#0a0a16"/>
    </radialGradient>
  </defs>
  <rect x="2" y="2" width="96" height="96" rx="22" fill="url(#bg)"/>
  <circle cx="50" cy="50" r="42" fill="none" stroke="#7dd3fc" stroke-width="1.4" stroke-opacity="0.5"/>
  <g>
    <g transform="rotate(0 50 50)"><path d="M50 8 L46 47 L50 50 Z" fill="url(#l)"/><path d="M50 8 L54 47 L50 50 Z" fill="url(#d)"/></g>
    <g transform="rotate(90 50 50)"><path d="M50 8 L46 47 L50 50 Z" fill="url(#l)"/><path d="M50 8 L54 47 L50 50 Z" fill="url(#d)"/></g>
    <g transform="rotate(180 50 50)"><path d="M50 8 L46 47 L50 50 Z" fill="url(#l)"/><path d="M50 8 L54 47 L50 50 Z" fill="url(#d)"/></g>
    <g transform="rotate(270 50 50)"><path d="M50 8 L46 47 L50 50 Z" fill="url(#l)"/><path d="M50 8 L54 47 L50 50 Z" fill="url(#d)"/></g>
    <g transform="rotate(45 50 50)"><path d="M50 26 L47.5 48 L50 50 Z" fill="url(#l)" fill-opacity="0.85"/><path d="M50 26 L52.5 48 L50 50 Z" fill="url(#d)" fill-opacity="0.85"/></g>
    <g transform="rotate(135 50 50)"><path d="M50 26 L47.5 48 L50 50 Z" fill="url(#l)" fill-opacity="0.85"/><path d="M50 26 L52.5 48 L50 50 Z" fill="url(#d)" fill-opacity="0.85"/></g>
    <g transform="rotate(225 50 50)"><path d="M50 26 L47.5 48 L50 50 Z" fill="url(#l)" fill-opacity="0.85"/><path d="M50 26 L52.5 48 L50 50 Z" fill="url(#d)" fill-opacity="0.85"/></g>
    <g transform="rotate(315 50 50)"><path d="M50 26 L47.5 48 L50 50 Z" fill="url(#l)" fill-opacity="0.85"/><path d="M50 26 L52.5 48 L50 50 Z" fill="url(#d)" fill-opacity="0.85"/></g>
  </g>
  <circle cx="50" cy="50" r="3.4" fill="#e0f2fe"/><circle cx="50" cy="50" r="1.6" fill="#0ea5e9"/>
</svg>
